<svg xmlns="http://www.w3.org/2000/svg" width="20" height="20" viewBox="0 0 20 20" fill="none">
                                <path d="M2.46585 10.7925C2.23404 10.2899 2.23404 9.71023 2.46585 9.20764C3.78181 6.35442 6.66064 4.375 10.0003 4.375C13.3399 4.375 16.2187 6.35442 17.5347 9.20765C17.7665 9.71024 17.7665 10.2899 17.5347 10.7925C16.2187 13.6458 13.3399 15.6252 10.0003 15.6252C6.66064 15.6252 3.78181 13.6458 2.46585 10.7925Z" stroke="currentColor" stroke-width="1.5" stroke-linecap="round" stroke-linejoin="round"></path>
                                <path d="M13.0212 10C13.0212 11.6684 11.6687 13.0208 10.0003 13.0208C8.33196 13.0208 6.97949 11.6684 6.97949 10C6.97949 8.33164 8.33196 6.97917 10.0003 6.97917C11.6687 6.97917 13.0212 8.33164 13.0212 10Z" stroke="currentColor" stroke-width="1.5" stroke-linecap="round" stroke-linejoin="round"></path>
                            </svg>