<svg xmlns="http://www.w3.org/2000/svg" width="20" height="20" viewBox="0 0 20 20" fill="none"><path d="M13.333 16.6666V12.9166C13.333 12.2262 12.7734 11.6666 12.083 11.6666L7.91634 11.6666C7.22599 11.6666 6.66634 12.2262 6.66634 12.9166L6.66635 16.6666M9.99967 5.83325H6.66634M15.4163 16.6666H4.58301C3.89265 16.6666 3.33301 16.1069 3.33301 15.4166V4.58325C3.33301 3.8929 3.89265 3.33325 4.58301 3.33325H12.8171C13.1483 3.33325 13.4659 3.46468 13.7003 3.69869L16.2995 6.29384C16.5343 6.52832 16.6662 6.84655 16.6662 7.17841L16.6663 15.4166C16.6663 16.1069 16.1066 16.6666 15.4163 16.6666Z" stroke="currentColor" stroke-width="1.5" stroke-linecap="round" stroke-linejoin="round"></path>
                            </svg>